<?xml version="1.0" encoding="UTF-8"?>
<!DOCTYPE svg PUBLIC "-//W3C//DTD SVG 1.1//EN" "http://www.w3.org/Graphics/SVG/1.1/DTD/svg11.dtd">
<svg version="1.1" xmlns="http://www.w3.org/2000/svg" xmlns:xlink="http://www.w3.org/1999/xlink" x="0" y="0" width="700" height="300" viewBox="0, 0, 700, 300">
  <g id="Ebene_1">
    <path d="M67.707,16.293 L66.293,17.707 L73.586,25 L66.293,32.293 L67.707,33.707 L75,26.414 L82.293,33.707 L83.707,32.293 L76.414,25 L83.707,17.707 L82.293,16.293 L75,23.586 L67.707,16.293 z" fill="#1A96C5" id="icons8-delete_sign"/>
    <path d="M13.333,17.333 L13.333,19.333 L36.667,19.333 L36.667,17.333 L13.333,17.333 z M13.333,24 L13.333,26 L36.667,26 L36.667,24 L13.333,24 z M13.333,30.667 L13.333,32.667 L36.667,32.667 L36.667,30.667 L13.333,30.667 z" fill="#1A96C5" id="icons8-menu"/>
    <path d="M13.333,117.333 L13.333,119.333 L36.667,119.333 L36.667,117.333 L13.333,117.333 z M13.333,124 L13.333,126 L36.667,126 L36.667,124 L13.333,124 z M13.333,130.667 L13.333,132.667 L36.667,132.667 L36.667,130.667 L13.333,130.667 z" fill="#8C8C8C" id="icons8-menu"/>
    <path d="M272,15 C268.146,15 265,18.146 265,22 C265,25.854 268.146,29 272,29 C273.748,29 275.345,28.348 276.574,27.281 L277,27.707 L277,29 L283,35 L285,33 L279,27 L277.707,27 L277.281,26.574 C278.348,25.345 279,23.748 279,22 C279,18.146 275.854,15 272,15 z M272,17 C274.773,17 277,19.227 277,22 C277,24.773 274.773,27 272,27 C269.227,27 267,24.773 267,22 C267,19.227 269.227,17 272,17 z" fill="#1A96C5" id="icons8-search"/>
    <path d="M324,15 C323.448,15 323,15.448 323,16 L323,24 L319,24 L325,30 L331,24 L327,24 L327,16 C327,15.448 326.552,15 326,15 L324,15 z M315,33 L315,35 L335,35 L335,33 L315,33 z" fill="#1A96C5" id="icons8-download"/>
    <path d="M132.793,17.939 L121.5,29.232 L117.207,24.939 L115.793,26.354 L121.5,32.061 L134.207,19.354 L132.793,17.939 z" fill="#1A96C5" id="icons8-checkmark"/>
    <path d="M174,16 L174,24 L166,24 L166,26 L174,26 L174,34 L176,34 L176,26 L184,26 L184,24 L176,24 L176,16 L174,16 z" fill="#1A96C5" id="icons8-plus_math"/>
    <path d="M216,24 L216,26 L234,26 L234,24 L216,24 z" fill="#1A96C5" id="icons8-minus"/>
    <path d="M185.15,61.95 L164.85,61.95 C163.248,61.95 161.95,63.248 161.95,64.85 L161.95,85.15 C161.95,86.752 163.248,88.05 164.85,88.05 L175.9,88.05 L175.9,77.957 L172.503,77.957 L172.503,74.005 L175.9,74.005 L175.9,71.098 C175.9,67.728 177.961,65.891 180.968,65.891 C181.982,65.888 182.994,65.94 184.002,66.043 L184.002,69.567 L181.931,69.567 C180.292,69.567 179.973,70.341 179.973,71.484 L179.973,74 L183.888,74 L183.38,77.951 L179.95,77.951 L179.95,88.05 L185.15,88.05 C186.752,88.05 188.05,86.752 188.05,85.15 L188.05,64.85 C188.05,63.248 186.752,61.95 185.15,61.95 z" fill="#1A96C5" id="icons8-facebook"/>
    <path d="M383.023,28.488 C382.393,28.473 381.6,28.436 381.099,28.348 C380.557,28.252 379.905,28.066 379.446,27.923 C379.086,27.811 378.694,27.91 378.427,28.176 L376.21,30.38 C374.678,29.573 373.451,28.633 372.412,27.588 C371.367,26.549 370.427,25.322 369.62,23.79 L371.824,21.572 C372.09,21.305 372.189,20.913 372.077,20.553 C371.935,20.095 371.748,19.443 371.653,18.901 C371.564,18.4 371.528,17.607 371.512,16.977 C371.499,16.432 371.055,16 370.51,16 L367,16 C366.562,16 366,16.328 366,17 C366,21.539 367.84,25.874 370.966,29.034 C374.126,32.16 378.461,34 383,34 C383.672,34 384,33.438 384,33 L384,29.49 C384,28.945 383.568,28.501 383.023,28.488 z" fill="#1A96C5" id="icons8-phone"/>
    <path d="M219.2,61.95 C215.197,61.95 211.95,65.197 211.95,69.2 L211.95,80.8 C211.95,84.803 215.197,88.05 219.2,88.05 L230.8,88.05 C234.803,88.05 238.05,84.803 238.05,80.8 L238.05,69.2 C238.05,65.197 234.803,61.95 230.8,61.95 L219.2,61.95 z M233.7,64.85 C234.5,64.85 235.15,65.5 235.15,66.3 C235.15,67.1 234.5,67.75 233.7,67.75 C232.9,67.75 232.25,67.1 232.25,66.3 C232.25,65.5 232.9,64.85 233.7,64.85 z M225,67.75 C229.003,67.75 232.25,70.997 232.25,75 C232.25,79.003 229.003,82.25 225,82.25 C220.997,82.25 217.75,79.003 217.75,75 C217.75,70.997 220.997,67.75 225,67.75 z M225,70.65 C222.597,70.65 220.65,72.597 220.65,75 C220.65,77.403 222.597,79.35 225,79.35 C227.403,79.35 229.35,77.403 229.35,75 C229.35,72.597 227.403,70.65 225,70.65 z" fill="#1A96C5" id="icons8-instagram_new"/>
    <path d="M285.15,61.95 L264.85,61.95 C263.248,61.95 261.95,63.248 261.95,64.85 L261.95,85.15 C261.95,86.752 263.248,88.05 264.85,88.05 L285.15,88.05 C286.752,88.05 288.05,86.752 288.05,85.15 L288.05,64.85 C288.05,63.248 286.752,61.95 285.15,61.95 z M282.323,71.395 C282.323,71.52 282.323,71.643 282.323,71.893 C282.323,76.615 278.718,82.085 272.13,82.085 C270.143,82.085 268.278,81.463 266.663,80.469 C266.91,80.469 267.285,80.469 267.533,80.469 C269.148,80.469 270.765,79.847 272.007,78.977 C270.392,78.977 269.149,77.859 268.652,76.492 C268.9,76.492 269.149,76.617 269.274,76.617 C269.647,76.617 269.896,76.617 270.269,76.492 C268.653,76.119 267.411,74.752 267.411,73.012 C267.908,73.26 268.405,73.385 269.026,73.509 C268.031,72.639 267.411,71.645 267.411,70.402 C267.411,69.78 267.535,69.159 267.908,68.662 C269.648,70.775 272.258,72.267 275.241,72.39 C275.241,72.142 275.116,71.893 275.116,71.52 C275.116,69.532 276.731,67.915 278.721,67.915 C279.715,67.915 280.709,68.288 281.331,69.033 C282.201,68.909 282.946,68.536 283.568,68.163 C283.32,69.033 282.698,69.655 281.953,70.151 C282.698,70.027 283.32,69.903 284.065,69.529 C283.565,70.277 282.945,70.898 282.323,71.395 z" fill="#1A96C5" id="icons8-twitter"/>
    <path d="M335.262,64.746 C332.528,62.009 328.893,60.501 325.017,60.5 C317.033,60.5 310.536,66.995 310.533,74.978 C310.531,77.53 311.198,80.021 312.465,82.217 L310.501,89.5 L318.089,87.706 C320.204,88.861 322.586,89.468 325.011,89.47 L325.015,89.47 C332.999,89.47 339.495,82.974 339.499,74.991 C339.502,71.121 337.999,67.483 335.262,64.746 z M332.103,80.153 C331.801,80.999 330.324,81.814 329.661,81.873 C328.995,81.934 328.373,82.173 325.317,80.968 C321.638,79.518 319.315,75.747 319.135,75.506 C318.954,75.264 317.658,73.544 317.658,71.764 C317.658,69.983 318.593,69.107 318.925,68.746 C319.257,68.384 319.649,68.294 319.892,68.294 C320.132,68.294 320.374,68.294 320.584,68.302 C320.842,68.313 321.128,68.326 321.399,68.927 C321.721,69.644 322.424,71.433 322.514,71.614 C322.604,71.796 322.665,72.007 322.544,72.248 C322.424,72.489 322.363,72.639 322.183,72.851 C322.002,73.063 321.805,73.322 321.643,73.485 C321.461,73.665 321.271,73.862 321.482,74.223 C321.693,74.585 322.418,75.77 323.494,76.728 C324.877,77.961 326.042,78.342 326.404,78.525 C326.767,78.706 326.977,78.676 327.189,78.434 C327.4,78.193 328.094,77.378 328.334,77.016 C328.575,76.653 328.817,76.714 329.149,76.834 C329.481,76.955 331.26,77.83 331.621,78.012 C331.984,78.193 332.225,78.283 332.315,78.434 C332.404,78.583 332.404,79.308 332.103,80.153 z" fill="#1A96C5" id="icons8-whatsapp"/>
    <path d="M185.15,161.95 L164.85,161.95 C163.248,161.95 161.95,163.248 161.95,164.85 L161.95,185.15 C161.95,186.752 163.248,188.05 164.85,188.05 L175.901,188.05 L175.901,177.957 L172.503,177.957 L172.503,174.005 L175.901,174.005 L175.901,171.098 C175.901,167.728 177.961,165.891 180.969,165.891 C181.982,165.888 182.994,165.94 184.002,166.043 L184.002,169.567 L181.931,169.567 C180.293,169.567 179.974,170.341 179.974,171.484 L179.974,173.999 L183.889,173.999 L183.38,177.951 L179.951,177.951 L179.951,188.05 L185.15,188.05 C186.753,188.05 188.05,186.752 188.05,185.15 L188.05,164.85 C188.05,163.248 186.753,161.95 185.15,161.95 z" fill="#8C8C8C" id="icons8-facebook"/>
    <path d="M219.2,161.95 C215.197,161.95 211.95,165.197 211.95,169.2 L211.95,180.8 C211.95,184.803 215.197,188.05 219.2,188.05 L230.8,188.05 C234.804,188.05 238.05,184.803 238.05,180.8 L238.05,169.2 C238.05,165.197 234.804,161.95 230.8,161.95 L219.2,161.95 z M233.7,164.85 C234.501,164.85 235.15,165.5 235.15,166.3 C235.15,167.1 234.501,167.75 233.7,167.75 C232.9,167.75 232.25,167.1 232.25,166.3 C232.25,165.5 232.9,164.85 233.7,164.85 z M225,167.75 C229.004,167.75 232.25,170.997 232.25,175 C232.25,179.003 229.004,182.25 225,182.25 C220.997,182.25 217.75,179.003 217.75,175 C217.75,170.997 220.997,167.75 225,167.75 z M225,170.65 C222.598,170.65 220.65,172.597 220.65,175 C220.65,177.403 222.598,179.35 225,179.35 C227.403,179.35 229.35,177.403 229.35,175 C229.35,172.597 227.403,170.65 225,170.65 z" fill="#8C8C8C" id="icons8-instagram_new"/>
    <path d="M285.15,161.95 L264.85,161.95 C263.248,161.95 261.95,163.248 261.95,164.85 L261.95,185.15 C261.95,186.752 263.248,188.05 264.85,188.05 L285.15,188.05 C286.753,188.05 288.05,186.752 288.05,185.15 L288.05,164.85 C288.05,163.248 286.753,161.95 285.15,161.95 z M282.323,171.395 C282.323,171.52 282.323,171.643 282.323,171.893 C282.323,176.615 278.718,182.085 272.131,182.085 C270.143,182.085 268.278,181.463 266.663,180.469 C266.911,180.469 267.285,180.469 267.533,180.469 C269.148,180.469 270.765,179.847 272.008,178.977 C270.392,178.977 269.15,177.859 268.652,176.492 C268.9,176.492 269.15,176.617 269.274,176.617 C269.647,176.617 269.896,176.617 270.269,176.492 C268.654,176.119 267.411,174.752 267.411,173.012 C267.908,173.26 268.406,173.385 269.026,173.509 C268.032,172.639 267.411,171.645 267.411,170.402 C267.411,169.78 267.536,169.159 267.908,168.662 C269.648,170.775 272.258,172.267 275.241,172.39 C275.241,172.142 275.116,171.893 275.116,171.52 C275.116,169.532 276.732,167.915 278.721,167.915 C279.716,167.915 280.709,168.288 281.331,169.033 C282.201,168.909 282.946,168.536 283.568,168.163 C283.32,169.033 282.698,169.655 281.953,170.151 C282.698,170.027 283.32,169.903 284.066,169.529 C283.566,170.277 282.945,170.898 282.323,171.395 z" fill="#8C8C8C" id="icons8-twitter"/>
    <path d="M335.263,164.746 C332.528,162.009 328.893,160.501 325.017,160.5 C317.033,160.5 310.536,166.995 310.533,174.978 C310.532,177.53 311.199,180.021 312.466,182.217 L310.501,189.5 L318.089,187.706 C320.204,188.861 322.587,189.468 325.011,189.47 L325.016,189.47 C332.999,189.47 339.495,182.974 339.5,174.991 C339.503,171.121 337.999,167.483 335.263,164.746 z M332.103,180.153 C331.802,180.999 330.324,181.814 329.661,181.873 C328.996,181.934 328.374,182.173 325.317,180.968 C321.639,179.518 319.316,175.747 319.136,175.506 C318.955,175.264 317.658,173.544 317.658,171.764 C317.658,169.983 318.594,169.107 318.926,168.746 C319.258,168.384 319.649,168.294 319.893,168.294 C320.132,168.294 320.374,168.294 320.584,168.302 C320.842,168.313 321.128,168.326 321.399,168.927 C321.721,169.644 322.424,171.433 322.514,171.614 C322.604,171.796 322.665,172.007 322.545,172.248 C322.424,172.489 322.364,172.639 322.184,172.851 C322.003,173.063 321.805,173.322 321.643,173.485 C321.462,173.665 321.272,173.862 321.482,174.223 C321.694,174.585 322.419,175.77 323.495,176.728 C324.878,177.961 326.042,178.342 326.405,178.525 C326.767,178.706 326.977,178.676 327.189,178.434 C327.401,178.193 328.094,177.378 328.335,177.016 C328.575,176.653 328.818,176.714 329.15,176.834 C329.482,176.955 331.261,177.83 331.622,178.012 C331.984,178.193 332.225,178.283 332.315,178.434 C332.405,178.583 332.405,179.308 332.103,180.153 z" fill="#8C8C8C" id="icons8-whatsapp"/>
    <path d="M434.582,69.186 C434.352,68.326 433.674,67.648 432.814,67.418 C431.254,67 425,67 425,67 C425,67 418.746,67 417.186,67.418 C416.326,67.648 415.648,68.326 415.418,69.186 C415,70.746 415,75 415,75 C415,75 415,79.254 415.418,80.814 C415.648,81.674 416.326,82.352 417.186,82.582 C418.746,83 425,83 425,83 C425,83 431.254,83 432.814,82.582 C433.675,82.352 434.352,81.674 434.582,80.814 C435,79.254 435,75 435,75 C435,75 435,70.746 434.582,69.186 z M423,78.464 L423,71.536 L429,75 L423,78.464 z" fill="#1A96C5" id="icons8-youtube_play"/>
    <path d="M430.914,15.5 C430.658,15.5 430.402,15.597 430.207,15.793 L428.5,17.5 L432.5,21.5 L434.207,19.793 C434.598,19.402 434.598,18.769 434.207,18.379 L431.621,15.793 C431.425,15.597 431.17,15.5 430.914,15.5 z M427,19 L417.5,28.5 C417.5,28.5 418.505,28.505 419,29 C419.495,29.495 419.484,30.484 419.484,30.484 C419.484,30.484 420.504,30.504 421,31 C421.496,31.496 421.5,32.5 421.5,32.5 L431,23 L427,19 z M416.17,30.5 L415.5,34.5 L419.5,33.83 L416.17,30.5 z" fill="#1A96C5" id="icons8-pencil"/>
    <path d="M525,65 C519.477,65 515,69.477 515,75 C515,80.523 519.477,85 525,85 C530.523,85 535,80.523 535,75 C535,69.477 530.523,65 525,65 z M525,67.75 C526.795,67.75 528.25,69.205 528.25,71 C528.25,72.795 526.795,74.25 525,74.25 C523.205,74.25 521.75,72.795 521.75,71 C521.75,69.205 523.205,67.75 525,67.75 z M525,83 C522.23,83 519.79,81.592 518.354,79.453 C519.475,77.823 523.046,77 525,77 C526.954,77 530.525,77.823 531.646,79.453 C530.21,81.592 527.77,83 525,83 z" fill="#1A96C5" id="icons8-user_male_circle"/>
    <path d="M480,65 C478.373,65 476.941,65.794 476.027,67 L467,67 C465.895,67 465,67.895 465,69 L465,83 C465,83.178 465.031,83.347 465.074,83.512 L475.65,72.936 C475.922,73.597 476.236,74.225 476.543,74.811 C476.55,74.825 476.555,74.837 476.562,74.852 L475.414,76 L482.926,83.512 C482.969,83.347 483,83.178 483,83 L483,75.66 C483.158,75.323 483.328,74.981 483.51,74.627 C484.209,73.262 485,71.714 485,70 C485,67.243 482.757,65 480,65 z M479.973,67.029 C481.63,67.029 482.973,68.372 482.973,70.029 C482.972,72.525 480.377,75.03 480.377,77.664 C480.377,77.87 480.177,78.023 479.971,78.023 C479.765,78.023 479.596,77.841 479.596,77.635 C479.596,75.001 476.973,72.755 476.973,70.029 C476.973,68.372 478.316,67.029 479.973,67.029 z M470.002,69 C470.78,69 471.487,69.295 472.021,69.781 L471.178,70.627 C470.861,70.356 470.451,70.189 470.002,70.189 C469.002,70.189 468.191,71 468.191,72 C468.191,72.999 469.002,73.811 470.002,73.811 C470.841,73.811 471.422,73.312 471.635,72.617 L470.002,72.617 L470.002,71.473 L472.828,71.477 C473.074,72.646 472.52,75 470.002,75 C468.344,75 467,73.657 467,72 C467,70.343 468.344,69 470.002,69 z M480,69 C479.448,69 479,69.448 479,70 C479,70.552 479.448,71 480,71 C480.552,71 481,70.552 481,70 C481,69.448 480.552,69 480,69 z M474,77.414 L466.488,84.926 C466.653,84.969 466.822,85 467,85 L481,85 C481.178,85 481.347,84.969 481.512,84.926 L474,77.414 z" fill="#1A96C5" id="icons8-google_maps"/>
    <path d="M473.035,17.93 L465.965,25 L473.035,32.07 L474.535,30.57 L469.965,26 L484.035,26 L484.035,24 L469.965,24 L474.535,19.43 L473.035,17.93 z" fill="#1A96C5" id="icons8-left"/>
    <path d="M617.53,72.924 L625,65.454 L632.47,72.924 L630.885,74.509 L626.057,69.68 L626.057,84.546 L623.943,84.546 L623.943,69.68 L619.115,74.509 L617.53,72.924 z" fill="#1A96C5" id="icons8-left"/>
    <path d="M617.53,172.924 L625,165.454 L632.47,172.924 L630.885,174.509 L626.057,169.68 L626.057,184.546 L623.943,184.546 L623.943,169.68 L619.115,174.509 L617.53,172.924 z" fill="#8C8C8C" id="icons8-left"/>
    <path d="M622.715,18.93 L621.215,20.43 L625.785,25 L621.215,29.57 L622.715,31.07 L628.785,25 L622.715,18.93 z" fill="#1A96C5" id="icons8-right_4"/>
    <path d="M577.285,18.93 L578.785,20.43 L574.215,25 L578.785,29.57 L577.285,31.07 L571.215,25 L577.285,18.93 z" fill="#1A96C5" id="icons8-right_4"/>
    <path d="M67.707,116.293 L66.293,117.707 L73.586,125 L66.293,132.293 L67.707,133.707 L75,126.414 L82.293,133.707 L83.707,132.293 L76.414,125 L83.707,117.707 L82.293,116.293 L75,123.586 L67.707,116.293 z" fill="#8C8C8C" id="icons8-delete_sign"/>
    <path d="M272,115 C268.146,115 265,118.146 265,122 C265,125.854 268.146,129 272,129 C273.748,129 275.345,128.348 276.574,127.281 L277,127.707 L277,129 L283,135 L285,133 L279,127 L277.707,127 L277.281,126.574 C278.348,125.345 279,123.748 279,122 C279,118.146 275.854,115 272,115 z M272,117 C274.773,117 277,119.227 277,122 C277,124.773 274.773,127 272,127 C269.227,127 267,124.773 267,122 C267,119.227 269.227,117 272,117 z" fill="#8C8C8C" id="icons8-search"/>
    <path d="M324,115 C323.448,115 323,115.448 323,116 L323,124 L319,124 L325,130 L331,124 L327,124 L327,116 C327,115.448 326.552,115 326,115 L324,115 z M315,133 L315,135 L335,135 L335,133 L315,133 z" fill="#8C8C8C" id="icons8-download"/>
    <path d="M132.793,117.939 L121.5,129.232 L117.207,124.939 L115.793,126.354 L121.5,132.061 L134.207,119.354 L132.793,117.939 z" fill="#8C8C8C" id="icons8-checkmark"/>
    <path d="M174,116 L174,124 L166,124 L166,126 L174,126 L174,134 L176,134 L176,126 L184,126 L184,124 L176,124 L176,116 L174,116 z" fill="#8C8C8C" id="icons8-plus_math"/>
    <path d="M216,124 L216,126 L234,126 L234,124 L216,124 z" fill="#8C8C8C" id="icons8-minus"/>
    <path d="M383.023,128.488 C382.393,128.473 381.6,128.436 381.099,128.348 C380.557,128.252 379.905,128.066 379.446,127.923 C379.086,127.811 378.694,127.91 378.427,128.176 L376.21,130.38 C374.678,129.573 373.451,128.633 372.412,127.588 C371.367,126.549 370.427,125.322 369.62,123.79 L371.824,121.572 C372.09,121.305 372.189,120.913 372.077,120.553 C371.935,120.095 371.748,119.443 371.653,118.901 C371.564,118.4 371.528,117.607 371.512,116.977 C371.499,116.432 371.055,116 370.51,116 L367,116 C366.562,116 366,116.328 366,117 C366,121.539 367.84,125.874 370.966,129.034 C374.126,132.16 378.461,134 383,134 C383.672,134 384,133.438 384,133 L384,129.49 C384,128.945 383.568,128.501 383.023,128.488 z" fill="#8C8C8C" id="icons8-phone"/>
    <path d="M430.914,115.5 C430.658,115.5 430.402,115.597 430.207,115.793 L428.5,117.5 L432.5,121.5 L434.207,119.793 C434.598,119.402 434.598,118.769 434.207,118.379 L431.621,115.793 C431.425,115.597 431.17,115.5 430.914,115.5 z M427,119 L417.5,128.5 C417.5,128.5 418.505,128.505 419,129 C419.495,129.495 419.484,130.484 419.484,130.484 C419.484,130.484 420.504,130.504 421,131 C421.496,131.496 421.5,132.5 421.5,132.5 L431,123 L427,119 z M416.17,130.5 L415.5,134.5 L419.5,133.83 L416.17,130.5 z" fill="#8C8C8C" id="icons8-pencil"/>
    <path d="M473.035,117.93 L465.965,125 L473.035,132.07 L474.535,130.57 L469.965,126 L484.035,126 L484.035,124 L469.965,124 L474.535,119.43 L473.035,117.93 z" fill="#8C8C8C" id="icons8-left"/>
    <path d="M526.965,117.93 L534.035,125 L526.965,132.07 L525.465,130.57 L530.035,126 L515.965,126 L515.965,124 L530.035,124 L525.465,119.43 L526.965,117.93 z" fill="#8C8C8C" id="icons8-left"/>
    <path d="M526.965,17.93 L534.035,25 L526.965,32.07 L525.465,30.57 L530.035,26 L515.965,26 L515.965,24 L530.035,24 L525.465,19.43 L526.965,17.93 z" fill="#1A96C5" id="icons8-left"/>
    <path d="M622.715,118.93 L621.215,120.43 L625.785,125 L621.215,129.57 L622.715,131.07 L628.785,125 L622.715,118.93 z" fill="#8C8C8C" id="icons8-right_4"/>
    <path d="M577.285,118.93 L578.785,120.43 L574.215,125 L578.785,129.57 L577.285,131.07 L571.215,125 L577.285,118.93 z" fill="#8C8C8C" id="icons8-right_4"/>
    <path d="M25,64.999 C17.865,64.999 12.059,70.805 12.059,77.94 C12.059,80.214 12.658,82.452 13.791,84.412 C14.001,84.776 14.39,85 14.81,85 L35.19,84.999 C35.61,84.999 35.999,84.775 36.209,84.412 C37.342,82.453 37.941,80.217 37.941,77.94 C37.941,70.805 32.135,64.999 25,64.999 z M29.045,69.705 C29.694,69.705 30.221,70.232 30.221,70.881 C30.221,71.531 29.694,72.058 29.045,72.058 C28.395,72.058 27.868,71.531 27.868,70.881 C27.868,70.232 28.394,69.705 29.045,69.705 z M25,68.528 C25.649,68.528 26.176,69.055 26.176,69.705 C26.176,70.354 25.649,70.881 25,70.881 C24.351,70.881 23.824,70.354 23.824,69.705 C23.824,69.055 24.351,68.528 25,68.528 z M15.588,77.94 C15.588,77.291 16.115,76.764 16.765,76.764 C17.414,76.764 17.941,77.291 17.941,77.94 C17.941,78.589 17.414,79.117 16.765,79.117 C16.115,79.117 15.588,78.589 15.588,77.94 z M17.941,83.234 C17.292,83.234 16.765,82.707 16.765,82.058 C16.765,81.408 17.292,80.881 17.941,80.881 C18.591,80.881 19.118,81.408 19.118,82.058 C19.118,82.707 18.591,83.234 17.941,83.234 z M17.941,74.999 C17.292,74.999 16.765,74.472 16.765,73.822 C16.765,73.173 17.292,72.646 17.941,72.646 C18.591,72.646 19.118,73.173 19.118,73.822 C19.118,74.472 18.591,74.999 17.941,74.999 z M20.882,72.058 C20.233,72.058 19.706,71.531 19.706,70.881 C19.706,70.232 20.233,69.705 20.882,69.705 C21.532,69.705 22.059,70.232 22.059,70.881 C22.059,71.531 21.532,72.058 20.882,72.058 z M25,80.293 C23.7,80.293 22.647,79.24 22.647,77.94 C22.647,76.64 23.7,75.587 25,75.587 C25.431,75.587 25.828,75.711 26.175,75.913 L32.107,72.522 L33.274,74.565 L27.351,77.949 C27.346,79.245 26.295,80.293 25,80.293 z M32.059,83.565 C31.409,83.565 30.882,83.038 30.882,82.388 C30.882,81.739 31.409,81.212 32.059,81.212 C32.708,81.212 33.235,81.739 33.235,82.388 C33.235,83.038 32.708,83.565 32.059,83.565 z M33.235,79.117 C32.586,79.117 32.059,78.589 32.059,77.94 C32.059,77.291 32.586,76.764 33.235,76.764 C33.885,76.764 34.412,77.291 34.412,77.94 C34.412,78.589 33.885,79.117 33.235,79.117 z" fill="#1A96C5" id="icons8-speed"/>
    <path d="M25,164.999 C17.865,164.999 12.059,170.805 12.059,177.941 C12.059,180.215 12.658,182.452 13.791,184.412 C14.001,184.777 14.39,185 14.81,185 L35.19,184.999 C35.61,184.999 35.999,184.776 36.209,184.412 C37.342,182.453 37.941,180.217 37.941,177.941 C37.941,170.805 32.135,164.999 25,164.999 z M29.045,169.705 C29.694,169.705 30.221,170.232 30.221,170.882 C30.221,171.531 29.694,172.058 29.045,172.058 C28.395,172.058 27.868,171.531 27.868,170.882 C27.868,170.232 28.394,169.705 29.045,169.705 z M25,168.529 C25.649,168.529 26.176,169.056 26.176,169.705 C26.176,170.355 25.649,170.882 25,170.882 C24.351,170.882 23.824,170.355 23.824,169.705 C23.824,169.056 24.351,168.529 25,168.529 z M15.588,177.941 C15.588,177.291 16.115,176.764 16.765,176.764 C17.414,176.764 17.941,177.291 17.941,177.941 C17.941,178.59 17.414,179.117 16.765,179.117 C16.115,179.117 15.588,178.59 15.588,177.941 z M17.941,183.235 C17.292,183.235 16.765,182.708 16.765,182.058 C16.765,181.409 17.292,180.882 17.941,180.882 C18.591,180.882 19.118,181.409 19.118,182.058 C19.118,182.708 18.591,183.235 17.941,183.235 z M17.941,174.999 C17.292,174.999 16.765,174.472 16.765,173.823 C16.765,173.174 17.292,172.646 17.941,172.646 C18.591,172.646 19.118,173.174 19.118,173.823 C19.118,174.472 18.591,174.999 17.941,174.999 z M20.882,172.058 C20.233,172.058 19.706,171.531 19.706,170.882 C19.706,170.232 20.233,169.705 20.882,169.705 C21.532,169.705 22.059,170.232 22.059,170.882 C22.059,171.531 21.532,172.058 20.882,172.058 z M25,180.293 C23.7,180.293 22.647,179.241 22.647,177.941 C22.647,176.641 23.7,175.588 25,175.588 C25.431,175.588 25.828,175.711 26.175,175.914 L32.107,172.523 L33.274,174.565 L27.351,177.95 C27.346,179.245 26.295,180.293 25,180.293 z M32.059,183.565 C31.409,183.565 30.882,183.038 30.882,182.389 C30.882,181.739 31.409,181.212 32.059,181.212 C32.708,181.212 33.235,181.739 33.235,182.389 C33.235,183.038 32.708,183.565 32.059,183.565 z M33.235,179.117 C32.586,179.117 32.059,178.59 32.059,177.941 C32.059,177.291 32.586,176.764 33.235,176.764 C33.885,176.764 34.412,177.291 34.412,177.941 C34.412,178.59 33.885,179.117 33.235,179.117 z" fill="#8C8C8C" id="icons8-speed"/>
    <path d="M75,65.55 L64,75.45 L67,75.45 L67,84.45 L72,84.45 L72,77.45 L78,77.45 L78,84.45 L83,84.45 L83,75.45 L86,75.45 L82,71.851 L82,67.45 L80,67.45 L80,70.05 L75,65.55 z" fill="#1A96C5" id="icons8-home"/>
    <path d="M114.34,84.45 L113.408,84.434 C113.399,84.178 113.24,78.166 117.208,74.059 C119.46,71.73 122.577,70.504 126.483,70.414 L126.483,65.55 L136.595,73.211 L126.483,80.873 L126.483,76.018 C115.07,76.233 114.347,84.368 114.34,84.45 z" fill="#1A96C5" id="icons8-right2_filled"/>
    <path d="M434.582,169.186 C434.352,168.326 433.674,167.648 432.814,167.418 C431.254,167 425,167 425,167 C425,167 418.746,167 417.186,167.418 C416.326,167.648 415.648,168.326 415.418,169.186 C415,170.746 415,175 415,175 C415,175 415,179.254 415.418,180.814 C415.648,181.674 416.326,182.352 417.186,182.582 C418.746,183 425,183 425,183 C425,183 431.254,183 432.814,182.582 C433.675,182.352 434.352,181.674 434.582,180.814 C435,179.254 435,175 435,175 C435,175 435,170.746 434.582,169.186 z M423,178.464 L423,171.536 L429,175 L423,178.464 z" fill="#8C8C8C" id="icons8-youtube_play"/>
    <path d="M525,165 C519.477,165 515,169.477 515,175 C515,180.523 519.477,185 525,185 C530.523,185 535,180.523 535,175 C535,169.477 530.523,165 525,165 z M525,167.75 C526.795,167.75 528.25,169.205 528.25,171 C528.25,172.795 526.795,174.25 525,174.25 C523.205,174.25 521.75,172.795 521.75,171 C521.75,169.205 523.205,167.75 525,167.75 z M525,183 C522.23,183 519.79,181.592 518.354,179.453 C519.475,177.823 523.046,177 525,177 C526.954,177 530.525,177.823 531.646,179.453 C530.21,181.592 527.77,183 525,183 z" fill="#8C8C8C" id="icons8-user_male_circle"/>
    <path d="M480,165 C478.373,165 476.941,165.794 476.027,167 L467,167 C465.895,167 465,167.895 465,169 L465,183 C465,183.178 465.031,183.347 465.074,183.512 L475.65,172.936 C475.922,173.597 476.236,174.225 476.543,174.811 C476.55,174.825 476.555,174.837 476.562,174.852 L475.414,176 L482.926,183.512 C482.969,183.347 483,183.178 483,183 L483,175.66 C483.158,175.323 483.328,174.981 483.51,174.627 C484.209,173.262 485,171.714 485,170 C485,167.243 482.757,165 480,165 z M479.973,167.029 C481.63,167.029 482.973,168.372 482.973,170.029 C482.972,172.525 480.377,175.03 480.377,177.664 C480.377,177.87 480.177,178.023 479.971,178.023 C479.765,178.023 479.596,177.841 479.596,177.635 C479.596,175.001 476.973,172.755 476.973,170.029 C476.973,168.372 478.316,167.029 479.973,167.029 z M470.002,169 C470.78,169 471.487,169.295 472.021,169.781 L471.178,170.627 C470.861,170.356 470.451,170.189 470.002,170.189 C469.002,170.189 468.191,171 468.191,172 C468.191,172.999 469.002,173.811 470.002,173.811 C470.841,173.811 471.422,173.312 471.635,172.617 L470.002,172.617 L470.002,171.473 L472.828,171.477 C473.074,172.646 472.52,175 470.002,175 C468.344,175 467,173.657 467,172 C467,170.343 468.344,169 470.002,169 z M480,169 C479.448,169 479,169.448 479,170 C479,170.552 479.448,171 480,171 C480.552,171 481,170.552 481,170 C481,169.448 480.552,169 480,169 z M474,177.414 L466.488,184.926 C466.653,184.969 466.822,185 467,185 L481,185 C481.178,185 481.347,184.969 481.512,184.926 L474,177.414 z" fill="#8C8C8C" id="icons8-google_maps"/>
    <path d="M75,165.55 L64,175.45 L67,175.45 L67,184.45 L72,184.45 L72,177.45 L78,177.45 L78,184.45 L83,184.45 L83,175.45 L86,175.45 L82,171.851 L82,167.45 L80,167.45 L80,170.05 L75,165.55 z" fill="#8C8C8C" id="icons8-home"/>
    <path d="M114.34,184.45 L113.408,184.434 C113.399,184.178 113.24,178.166 117.208,174.059 C119.46,171.73 122.577,170.504 126.483,170.414 L126.483,165.55 L136.595,173.211 L126.483,180.873 L126.483,176.018 C115.07,176.233 114.347,184.368 114.34,184.45 z" fill="#8C8C8C" id="icons8-right2_filled"/>
    <g id="bxs-envelope">
      <path d="M575,77.408 L589.5,64.227 C589.282,63.692 588.762,63.312 588.148,63.312 L561.852,63.312 C561.239,63.312 560.718,63.692 560.502,64.227 L575,77.408 z" fill="#1A96C5"/>
      <path d="M575,81.358 L560.391,68.077 L560.391,85.227 C560.391,86.034 561.045,86.688 561.852,86.688 L588.148,86.688 C588.956,86.688 589.609,86.034 589.609,85.227 L589.609,68.077 L575,81.358 z" fill="#1A96C5"/>
    </g>
    <g id="bxs-envelope">
      <path d="M575,177.408 L589.5,164.227 C589.282,163.692 588.762,163.312 588.148,163.312 L561.852,163.312 C561.239,163.312 560.718,163.692 560.502,164.227 L575,177.408 z" fill="#8C8C8C"/>
      <path d="M575,181.358 L560.391,168.077 L560.391,185.227 C560.391,186.034 561.045,186.688 561.852,186.688 L588.148,186.688 C588.956,186.688 589.609,186.034 589.609,185.227 L589.609,168.077 L575,181.358 z" fill="#8C8C8C"/>
    </g>
    <path d="M13.333,217.333 L13.333,219.333 L36.667,219.333 L36.667,217.333 L13.333,217.333 z M13.333,224 L13.333,226 L36.667,226 L36.667,224 L13.333,224 z M13.333,230.667 L13.333,232.667 L36.667,232.667 L36.667,230.667 L13.333,230.667 z" fill="#FFFFFF" id="icons8-menu"/>
    <path d="M617.53,272.924 L625,265.454 L632.47,272.924 L630.885,274.509 L626.057,269.68 L626.057,284.546 L623.943,284.546 L623.943,269.68 L619.115,274.509 L617.53,272.924 z" fill="#FFFFFF" id="icons8-left"/>
    <path d="M67.707,216.293 L66.293,217.707 L73.586,225 L66.293,232.293 L67.707,233.707 L75,226.414 L82.293,233.707 L83.707,232.293 L76.414,225 L83.707,217.707 L82.293,216.293 L75,223.586 L67.707,216.293 z" fill="#FFFFFF" id="icons8-delete_sign"/>
    <path d="M272,215 C268.146,215 265,218.146 265,222 C265,225.854 268.146,229 272,229 C273.748,229 275.345,228.348 276.574,227.281 L277,227.707 L277,229 L283,235 L285,233 L279,227 L277.707,227 L277.281,226.574 C278.348,225.345 279,223.748 279,222 C279,218.146 275.854,215 272,215 z M272,217 C274.773,217 277,219.227 277,222 C277,224.773 274.773,227 272,227 C269.227,227 267,224.773 267,222 C267,219.227 269.227,217 272,217 z" fill="#FFFFFF" id="icons8-search"/>
    <path d="M324,215 C323.448,215 323,215.448 323,216 L323,224 L319,224 L325,230 L331,224 L327,224 L327,216 C327,215.448 326.552,215 326,215 L324,215 z M315,233 L315,235 L335,235 L335,233 L315,233 z" fill="#FFFFFF" id="icons8-download"/>
    <path d="M132.793,217.939 L121.5,229.232 L117.207,224.939 L115.793,226.354 L121.5,232.061 L134.207,219.354 L132.793,217.939 z" fill="#FFFFFF" id="icons8-checkmark"/>
    <path d="M174,216 L174,224 L166,224 L166,226 L174,226 L174,234 L176,234 L176,226 L184,226 L184,224 L176,224 L176,216 L174,216 z" fill="#FFFFFF" id="icons8-plus_math"/>
    <path d="M216,224 L216,226 L234,226 L234,224 L216,224 z" fill="#FFFFFF" id="icons8-minus"/>
    <path d="M383.023,228.488 C382.393,228.473 381.6,228.436 381.099,228.348 C380.557,228.252 379.905,228.066 379.446,227.923 C379.086,227.811 378.694,227.91 378.427,228.176 L376.21,230.38 C374.678,229.573 373.451,228.633 372.412,227.588 C371.367,226.549 370.427,225.322 369.62,223.79 L371.824,221.572 C372.09,221.305 372.189,220.913 372.077,220.553 C371.935,220.095 371.748,219.443 371.653,218.901 C371.564,218.4 371.528,217.607 371.512,216.977 C371.499,216.432 371.055,216 370.51,216 L367,216 C366.562,216 366,216.328 366,217 C366,221.539 367.84,225.874 370.966,229.034 C374.126,232.16 378.461,234 383,234 C383.672,234 384,233.438 384,233 L384,229.49 C384,228.945 383.568,228.501 383.023,228.488 z" fill="#FFFFFF" id="icons8-phone"/>
    <path d="M430.914,215.5 C430.658,215.5 430.402,215.597 430.207,215.793 L428.5,217.5 L432.5,221.5 L434.207,219.793 C434.598,219.402 434.598,218.769 434.207,218.379 L431.621,215.793 C431.425,215.597 431.17,215.5 430.914,215.5 z M427,219 L417.5,228.5 C417.5,228.5 418.505,228.505 419,229 C419.495,229.495 419.484,230.484 419.484,230.484 C419.484,230.484 420.504,230.504 421,231 C421.496,231.496 421.5,232.5 421.5,232.5 L431,223 L427,219 z M416.17,230.5 L415.5,234.5 L419.5,233.83 L416.17,230.5 z" fill="#FFFFFF" id="icons8-pencil"/>
    <path d="M473.035,217.93 L465.965,225 L473.035,232.07 L474.535,230.57 L469.965,226 L484.035,226 L484.035,224 L469.965,224 L474.535,219.43 L473.035,217.93 z" fill="#FFFFFF" id="icons8-left"/>
    <path d="M526.965,217.93 L534.035,225 L526.965,232.07 L525.465,230.57 L530.035,226 L515.965,226 L515.965,224 L530.035,224 L525.465,219.43 L526.965,217.93 z" fill="#FFFFFF" id="icons8-left"/>
    <path d="M622.715,218.93 L621.215,220.43 L625.785,225 L621.215,229.57 L622.715,231.07 L628.785,225 L622.715,218.93 z" fill="#FFFFFF" id="icons8-right_4"/>
    <path d="M577.285,218.93 L578.785,220.43 L574.215,225 L578.785,229.57 L577.285,231.07 L571.215,225 L577.285,218.93 z" fill="#FFFFFF" id="icons8-right_4"/>
    <path d="M182,266 L168,266 C166.895,266 166,266.895 166,268 L166,282 C166,283.105 166.895,284 168,284 L175.621,284 L175.621,277.039 L173.278,277.039 L173.278,274.314 L175.621,274.314 L175.621,272.309 C175.621,269.985 177.042,268.718 179.116,268.718 C179.815,268.716 180.513,268.752 181.208,268.823 L181.208,271.253 L179.78,271.253 C178.65,271.253 178.43,271.787 178.43,272.575 L178.43,274.31 L181.13,274.31 L180.779,277.035 L178.414,277.035 L178.414,284 L182,284 C183.105,284 184,283.105 184,282 L184,268 C184,266.895 183.105,266 182,266 z" fill="#FFFFFF" id="icons8-facebook"/>
    <path d="M221,266 C218.239,266 216,268.239 216,271 L216,279 C216,281.761 218.239,284 221,284 L229,284 C231.761,284 234,281.761 234,279 L234,271 C234,268.239 231.761,266 229,266 L221,266 z M231,268 C231.552,268 232,268.448 232,269 C232,269.552 231.552,270 231,270 C230.448,270 230,269.552 230,269 C230,268.448 230.448,268 231,268 z M225,270 C227.761,270 230,272.239 230,275 C230,277.761 227.761,280 225,280 C222.239,280 220,277.761 220,275 C220,272.239 222.239,270 225,270 z M225,272 C223.343,272 222,273.343 222,275 C222,276.657 223.343,278 225,278 C226.657,278 228,276.657 228,275 C228,273.343 226.657,272 225,272 z" fill="#FFFFFF" id="icons8-instagram_new"/>
    <path d="M282,266 L268,266 C266.895,266 266,266.895 266,268 L266,282 C266,283.105 266.895,284 268,284 L282,284 C283.105,284 284,283.105 284,282 L284,268 C284,266.895 283.105,266 282,266 z M280.05,272.514 C280.05,272.6 280.05,272.685 280.05,272.857 C280.05,276.114 277.564,279.886 273.021,279.886 C271.65,279.886 270.364,279.457 269.25,278.772 C269.421,278.772 269.679,278.772 269.85,278.772 C270.964,278.772 272.079,278.343 272.936,277.743 C271.822,277.743 270.965,276.972 270.622,276.029 C270.793,276.029 270.965,276.115 271.051,276.115 C271.308,276.115 271.48,276.115 271.737,276.029 C270.623,275.772 269.766,274.829 269.766,273.629 C270.109,273.8 270.452,273.886 270.88,273.972 C270.194,273.372 269.766,272.686 269.766,271.829 C269.766,271.4 269.852,270.972 270.109,270.629 C271.309,272.086 273.109,273.115 275.166,273.2 C275.166,273.029 275.08,272.857 275.08,272.6 C275.08,271.229 276.194,270.114 277.566,270.114 C278.252,270.114 278.937,270.371 279.366,270.885 C279.966,270.799 280.48,270.542 280.909,270.285 C280.738,270.885 280.309,271.314 279.795,271.656 C280.309,271.57 280.738,271.485 281.252,271.227 C280.907,271.743 280.479,272.171 280.05,272.514 z" fill="#FFFFFF" id="icons8-twitter"/>
    <path d="M332.077,267.928 C330.191,266.041 327.684,265.001 325.011,265 C319.505,265 315.024,269.479 315.022,274.985 C315.021,276.745 315.481,278.463 316.355,279.977 L315,285 L320.233,283.763 C321.692,284.559 323.335,284.978 325.007,284.979 L325.01,284.979 C330.516,284.979 334.996,280.499 334.999,274.994 C335.001,272.325 333.964,269.816 332.077,267.928 z M329.898,278.554 C329.69,279.137 328.671,279.699 328.214,279.74 C327.755,279.782 327.326,279.947 325.218,279.116 C322.681,278.116 321.079,275.515 320.955,275.349 C320.83,275.182 319.936,273.996 319.936,272.768 C319.936,271.54 320.581,270.936 320.81,270.687 C321.039,270.437 321.309,270.375 321.477,270.375 C321.642,270.375 321.809,270.375 321.954,270.381 C322.132,270.388 322.329,270.397 322.516,270.812 C322.738,271.306 323.223,272.54 323.285,272.665 C323.347,272.79 323.389,272.936 323.306,273.102 C323.223,273.268 323.181,273.372 323.057,273.518 C322.932,273.664 322.796,273.843 322.684,273.955 C322.559,274.079 322.428,274.215 322.573,274.464 C322.719,274.714 323.219,275.531 323.961,276.192 C324.915,277.042 325.718,277.305 325.968,277.431 C326.218,277.556 326.363,277.535 326.509,277.368 C326.655,277.202 327.133,276.64 327.299,276.39 C327.465,276.14 327.632,276.182 327.861,276.265 C328.09,276.348 329.317,276.952 329.566,277.077 C329.816,277.202 329.982,277.264 330.044,277.368 C330.106,277.471 330.106,277.971 329.898,278.554 z" fill="#FFFFFF" id="icons8-whatsapp"/>
    <path d="M375.199,273.239 L375.199,277.06 L380.644,277.06 C379.932,279.375 377.997,281.032 375.199,281.032 C371.867,281.032 369.166,278.331 369.166,275 C369.166,271.669 371.867,268.968 375.199,268.968 C376.697,268.968 378.065,269.517 379.12,270.421 L381.934,267.607 C380.157,265.988 377.793,265 375.199,265 C369.675,265 365.197,269.477 365.197,275 C365.197,280.523 369.675,285 375.199,285 C383.595,285 385.448,277.15 384.625,273.252 L375.199,273.239 z" fill="#FFFFFF" id="icons8-google_logo"/>
    <path d="M434.582,269.186 C434.352,268.326 433.674,267.648 432.814,267.418 C431.254,267 425,267 425,267 C425,267 418.746,267 417.186,267.418 C416.326,267.648 415.648,268.326 415.418,269.186 C415,270.746 415,275 415,275 C415,275 415,279.254 415.418,280.814 C415.648,281.674 416.326,282.352 417.186,282.582 C418.746,283 425,283 425,283 C425,283 431.254,283 432.814,282.582 C433.675,282.352 434.352,281.674 434.582,280.814 C435,279.254 435,275 435,275 C435,275 435,270.746 434.582,269.186 z M423,278.464 L423,271.536 L429,275 L423,278.464 z" fill="#FFFFFF" id="icons8-youtube_play"/>
    <path d="M525,265 C519.477,265 515,269.477 515,275 C515,280.523 519.477,285 525,285 C530.523,285 535,280.523 535,275 C535,269.477 530.523,265 525,265 z M525,267.75 C526.795,267.75 528.25,269.205 528.25,271 C528.25,272.795 526.795,274.25 525,274.25 C523.205,274.25 521.75,272.795 521.75,271 C521.75,269.205 523.205,267.75 525,267.75 z M525,283 C522.23,283 519.79,281.592 518.354,279.453 C519.475,277.823 523.046,277 525,277 C526.954,277 530.525,277.823 531.646,279.453 C530.21,281.592 527.77,283 525,283 z" fill="#FFFFFF" id="icons8-user_male_circle"/>
    <path d="M480,265 C478.373,265 476.941,265.794 476.027,267 L467,267 C465.895,267 465,267.895 465,269 L465,283 C465,283.178 465.031,283.347 465.074,283.512 L475.65,272.936 C475.922,273.597 476.236,274.225 476.543,274.811 C476.55,274.825 476.555,274.837 476.562,274.852 L475.414,276 L482.926,283.512 C482.969,283.347 483,283.178 483,283 L483,275.66 C483.158,275.323 483.328,274.981 483.51,274.627 C484.209,273.262 485,271.714 485,270 C485,267.243 482.757,265 480,265 z M479.973,267.029 C481.63,267.029 482.973,268.372 482.973,270.029 C482.972,272.525 480.377,275.03 480.377,277.664 C480.377,277.87 480.177,278.023 479.971,278.023 C479.765,278.023 479.596,277.841 479.596,277.635 C479.596,275.001 476.973,272.755 476.973,270.029 C476.973,268.372 478.316,267.029 479.973,267.029 z M470.002,269 C470.78,269 471.487,269.295 472.021,269.781 L471.178,270.627 C470.861,270.356 470.451,270.189 470.002,270.189 C469.002,270.189 468.191,271 468.191,272 C468.191,272.999 469.002,273.811 470.002,273.811 C470.841,273.811 471.422,273.312 471.635,272.617 L470.002,272.617 L470.002,271.473 L472.828,271.477 C473.074,272.646 472.52,275 470.002,275 C468.344,275 467,273.657 467,272 C467,270.343 468.344,269 470.002,269 z M480,269 C479.448,269 479,269.448 479,270 C479,270.552 479.448,271 480,271 C480.552,271 481,270.552 481,270 C481,269.448 480.552,269 480,269 z M474,277.414 L466.488,284.926 C466.653,284.969 466.822,285 467,285 L481,285 C481.178,285 481.347,284.969 481.512,284.926 L474,277.414 z" fill="#FFFFFF" id="icons8-google_maps"/>
    <path d="M25,266.499 C18.935,266.499 14,271.434 14,277.499 C14,279.432 14.509,281.335 15.472,283.001 C15.651,283.311 15.981,283.501 16.338,283.501 L33.662,283.499 C34.019,283.499 34.349,283.309 34.528,283.001 C35.491,281.335 36,279.434 36,277.499 C36,271.434 31.065,266.499 25,266.499 z M28.438,270.499 C28.99,270.499 29.438,270.947 29.438,271.499 C29.438,272.051 28.99,272.499 28.438,272.499 C27.886,272.499 27.438,272.051 27.438,271.499 C27.438,270.947 27.885,270.499 28.438,270.499 z M25,269.499 C25.552,269.499 26,269.947 26,270.499 C26,271.051 25.552,271.499 25,271.499 C24.448,271.499 24,271.051 24,270.499 C24,269.947 24.448,269.499 25,269.499 z M17,277.499 C17,276.947 17.448,276.499 18,276.499 C18.552,276.499 19,276.947 19,277.499 C19,278.051 18.552,278.499 18,278.499 C17.448,278.499 17,278.051 17,277.499 z M19,281.999 C18.448,281.999 18,281.551 18,280.999 C18,280.447 18.448,279.999 19,279.999 C19.552,279.999 20,280.447 20,280.999 C20,281.551 19.552,281.999 19,281.999 z M19,274.999 C18.448,274.999 18,274.551 18,273.999 C18,273.447 18.448,272.999 19,272.999 C19.552,272.999 20,273.447 20,273.999 C20,274.551 19.552,274.999 19,274.999 z M21.5,272.499 C20.948,272.499 20.5,272.051 20.5,271.499 C20.5,270.947 20.948,270.499 21.5,270.499 C22.052,270.499 22.5,270.947 22.5,271.499 C22.5,272.051 22.052,272.499 21.5,272.499 z M25,279.499 C23.895,279.499 23,278.604 23,277.499 C23,276.395 23.895,275.499 25,275.499 C25.366,275.499 25.704,275.604 25.999,275.776 L31.041,272.895 L32.033,274.63 L26.998,277.507 C26.994,278.608 26.101,279.499 25,279.499 z M31,282.281 C30.448,282.281 30,281.832 30,281.281 C30,280.729 30.448,280.281 31,280.281 C31.552,280.281 32,280.729 32,281.281 C32,281.832 31.552,282.281 31,282.281 z M32,278.499 C31.448,278.499 31,278.051 31,277.499 C31,276.947 31.448,276.499 32,276.499 C32.552,276.499 33,276.947 33,277.499 C33,278.051 32.552,278.499 32,278.499 z" fill="#FFFFFF" id="icons8-speed"/>
    <path d="M75,265.55 L64,275.45 L67,275.45 L67,284.45 L72,284.45 L72,277.45 L78,277.45 L78,284.45 L83,284.45 L83,275.45 L86,275.45 L82,271.851 L82,267.45 L80,267.45 L80,270.05 L75,265.55 z" fill="#FFFFFF" id="icons8-home"/>
    <path d="M114.34,284.45 L113.408,284.434 C113.399,284.178 113.24,278.166 117.208,274.059 C119.46,271.73 122.577,270.504 126.483,270.414 L126.483,265.55 L136.595,273.211 L126.483,280.873 L126.483,276.018 C115.07,276.233 114.347,284.368 114.34,284.45 z" fill="#FFFFFF" id="icons8-right2_filled"/>
    <g id="bxs-envelope">
      <path d="M575,276.648 L584.925,267.626 C584.776,267.26 584.42,267 584,267 L566,267 C565.581,267 565.224,267.26 565.076,267.626 L575,276.648 z" fill="#FFFFFF"/>
      <path d="M575,279.352 L565,270.261 L565,282 C565,282.553 565.448,283 566,283 L584,283 C584.553,283 585,282.553 585,282 L585,270.261 L575,279.352 z" fill="#FFFFFF"/>
    </g>
    <path d="M379.5,63 L379.5,87 L386.5,87 L386.5,63 z M381.5,65 L384.5,65 L384.5,85 L381.5,85 z M371.5,69 L371.5,87 L378.5,87 L378.5,69 z M373.5,71 L376.5,71 L376.5,85 L373.5,85 z M363.5,75 L363.5,87 L370.5,87 L370.5,75 z" fill="#1A96C5" id="icons8-low_connection"/>
    <path d="M379.5,163 L379.5,187 L386.5,187 L386.5,163 z M381.5,165 L384.5,165 L384.5,185 L381.5,185 z M371.5,169 L371.5,187 L378.5,187 L378.5,169 z M373.5,171 L376.5,171 L376.5,185 L373.5,185 z M363.5,175 L363.5,187 L370.5,187 L370.5,175 z" fill="#8C8C8C" id="icons8-low_connection"/>
    <path d="M669.038,65 C667.764,65 666.731,66.034 666.731,67.308 L666.731,82.692 C666.731,83.966 667.764,85 669.038,85 L679.808,85 C681.082,85 682.115,83.966 682.115,82.692 L682.115,78.702 L680.577,80.048 L680.577,82.692 C680.577,83.116 680.231,83.462 679.808,83.462 L669.038,83.462 C668.615,83.462 668.269,83.116 668.269,82.692 L668.269,67.308 C668.269,66.884 668.615,66.538 669.038,66.538 L679.808,66.538 C680.231,66.538 680.577,66.884 680.577,67.308 L680.577,69.952 L682.115,71.298 L682.115,67.308 C682.115,66.034 681.082,65 679.808,65 z M677.115,69.976 C676.923,70.033 676.731,70.228 676.731,70.745 L676.731,72.692 L672.115,72.692 C671.692,72.692 671.346,73.038 671.346,73.462 L671.346,76.538 C671.346,76.962 671.692,77.308 672.115,77.308 L676.731,77.308 L676.731,79.231 C676.731,80.216 677.5,80 677.5,80 L683.269,75 L677.5,70 C677.5,70 677.308,69.919 677.115,69.976 z" fill="#1A96C5" id="icons8-exit"/>
    <path d="M669.038,165 C667.764,165 666.731,166.034 666.731,167.308 L666.731,182.692 C666.731,183.966 667.764,185 669.038,185 L679.808,185 C681.082,185 682.115,183.966 682.115,182.692 L682.115,178.702 L680.577,180.048 L680.577,182.692 C680.577,183.116 680.231,183.462 679.808,183.462 L669.038,183.462 C668.615,183.462 668.269,183.116 668.269,182.692 L668.269,167.308 C668.269,166.884 668.615,166.538 669.038,166.538 L679.808,166.538 C680.231,166.538 680.577,166.884 680.577,167.308 L680.577,169.952 L682.115,171.298 L682.115,167.308 C682.115,166.034 681.082,165 679.808,165 z M677.115,169.976 C676.923,170.033 676.731,170.228 676.731,170.745 L676.731,172.692 L672.115,172.692 C671.692,172.692 671.346,173.038 671.346,173.462 L671.346,176.538 C671.346,176.962 671.692,177.308 672.115,177.308 L676.731,177.308 L676.731,179.231 C676.731,180.216 677.5,180 677.5,180 L683.269,175 L677.5,170 C677.5,170 677.308,169.919 677.115,169.976 z" fill="#8C8C8C" id="icons8-exit"/>
  </g>
</svg>
