<svg xmlns="http://www.w3.org/2000/svg" width="100" height="100" viewBox="0 0 0 0 100 0 100"><path d="M86.283 19.608q0-2.451-1.715-4.167-1.715-1.715-4.164-1.715-2.45 0-4.164 1.715-1.715 1.716-1.715 4.167 0 2.451 1.715 4.167 1.714 1.715 4.164 1.715 2.449 0 4.164-1.715 1.715-1.716 1.715-4.167zM100 1.961q0 15.257-4.623 26.379-4.624 11.121-15.524 22.089-4.961 4.902-11.942 10.784l-1.225 23.223q-.122.981-.979 1.593L42.191 99.755q-.429.245-.98.245-.735 0-1.408-.551l-3.92-3.922q-.796-.858-.489-1.961l5.205-16.912-17.208-17.218-16.902 5.209q-.184.061-.551.061-.857 0-1.408-.552L.61 60.233q-1.041-1.164-.306-2.39l13.717-23.529q.613-.858 1.593-.981l23.209-1.225q5.879-6.985 10.778-11.949Q61.114 8.701 71.524 4.351 81.935 0 97.918 0q.857 0 1.47.582.612.582.612 1.379z" fill="#FFF"/></svg>